<svg xmlns="http://www.w3.org/2000/svg" xmlns:svg="http://www.w3.org/2000/svg" id="svg4039" width="744.094" height="1052.362" version="1.1"><defs id="defs4041"><marker style="overflow:visible" id="marker5161" orient="auto" refX="0" refY="0"><path transform="matrix(-0.8,0,0,-0.8,-10,0)" style="fill:#000;fill-opacity:1;fill-rule:evenodd;stroke:#000;stroke-width:1pt;stroke-opacity:1" id="path5163" d="M 0,0 5,-5 -12.5,0 5,5 0,0 z"/></marker><marker id="Arrow1Lstart" orient="auto" refX="0" refY="0" style="overflow:visible"><path id="path4144" d="M 0,0 5,-5 -12.5,0 5,5 0,0 z" style="fill:#000;fill-opacity:1;fill-rule:evenodd;stroke:#000;stroke-width:1pt;stroke-opacity:1" transform="matrix(0.8,0,0,0.8,10,0)"/></marker><marker style="overflow:visible" id="marker4902" orient="auto" refX="0" refY="0"><path transform="matrix(-0.8,0,0,-0.8,-10,0)" style="fill:#000;fill-opacity:1;fill-rule:evenodd;stroke:#000;stroke-width:1pt;stroke-opacity:1" id="path4904" d="M 0,0 5,-5 -12.5,0 5,5 0,0 z"/></marker><marker id="marker4710" orient="auto" refX="0" refY="0" style="overflow:visible"><path id="path4712" d="M 0,0 5,-5 -12.5,0 5,5 0,0 z" style="fill:#000;fill-opacity:1;fill-rule:evenodd;stroke:#000;stroke-width:1pt;stroke-opacity:1" transform="matrix(-0.8,0,0,-0.8,-10,0)"/></marker><marker style="overflow:visible" id="marker4428" orient="auto" refX="0" refY="0"><path transform="matrix(-0.8,0,0,-0.8,-10,0)" style="fill:#000;fill-opacity:1;fill-rule:evenodd;stroke:#000;stroke-width:1pt;stroke-opacity:1" id="path4430" d="M 0,0 5,-5 -12.5,0 5,5 0,0 z"/></marker><marker id="Arrow1Lend" orient="auto" refX="0" refY="0" style="overflow:visible"><path id="path4147" d="M 0,0 5,-5 -12.5,0 5,5 0,0 z" style="fill:#000;fill-opacity:1;fill-rule:evenodd;stroke:#000;stroke-width:1pt;stroke-opacity:1" transform="matrix(-0.8,0,0,-0.8,-10,0)"/></marker></defs><metadata id="metadata4044"/><g id="layer1"><path style="fill:none;stroke:#000;stroke-width:1.60000002;stroke-linecap:butt;stroke-linejoin:miter;stroke-miterlimit:4;stroke-opacity:1;stroke-dasharray:none;marker-end:url(#Arrow1Lend);display:inline" id="path3336" d="M 363.23165,488.36906 361.24647,128.05951"/><path style="fill:none;stroke:#000;stroke-width:1.60000002;stroke-linecap:butt;stroke-linejoin:miter;stroke-miterlimit:4;stroke-opacity:1;stroke-dasharray:none;marker-end:url(#marker4428);display:inline" id="path4420" d="m 364.98139,484.2185 c 310,0 310,0 310,0"/><path style="fill:none;stroke:#000;stroke-width:1.60000002;stroke-linecap:butt;stroke-linejoin:miter;stroke-miterlimit:4;stroke-opacity:1;stroke-dasharray:none;marker-end:url(#marker4710);display:inline" id="path4702" d="m 364.98139,484.2185 c -229.99999,130 -269.999996,150 -269.999996,150"/><path style="fill:none;stroke:#000;stroke-width:1.60000002;stroke-linecap:butt;stroke-linejoin:miter;stroke-miterlimit:4;stroke-opacity:1;stroke-dasharray:none;marker-end:url(#marker4902);display:inline" id="path4894" d="m 364.98139,484.2185 c -160,-290 -160,-290 -160,-290"/><path style="fill:#000;fill-rule:evenodd;stroke:#000;stroke-width:1.60000002;stroke-linecap:butt;stroke-linejoin:miter;stroke-miterlimit:4;stroke-opacity:1;stroke-dasharray:none;marker-start:url(#Arrow1Lstart);display:inline" id="path4945" d="m 356.96657,133.15179 -98.03137,39.3884 -35.39813,14.22275 -18.55568,7.45556"/><path style="fill:none;stroke:#000;stroke-width:1.52437472;stroke-linecap:butt;stroke-linejoin:miter;stroke-miterlimit:4;stroke-opacity:1;stroke-dasharray:9.14624929,9.14624929;stroke-dashoffset:0;display:inline" id="path5005" d="m 206.96656,199.25556 c 0,545.36259 0,545.36259 0,545.36259"/><path style="fill:none;stroke:#000;stroke-width:1.75729835;stroke-linecap:butt;stroke-linejoin:miter;stroke-miterlimit:4;stroke-opacity:1;stroke-dasharray:10.54379025,10.54379025;stroke-dashoffset:0;display:inline" id="path5151" d="M 360.9055,487.26275 C 206.07952,742.56647 206.07952,742.56647 206.07952,742.56647"/><path style="fill:none;stroke:#000;stroke-width:1.76889062;stroke-linecap:butt;stroke-linejoin:miter;stroke-miterlimit:4;stroke-opacity:1;stroke-dasharray:none;marker-end:url(#marker5161);display:inline" id="path5153" d="M 360.24801,485.3919 C 601.45873,181.3618 601.45873,181.3618 601.45873,181.3618"/><text xml:space="preserve" style="font-size:40px;font-style:normal;font-weight:400;line-height:125%;letter-spacing:0;word-spacing:0;fill:#000;fill-opacity:1;stroke:none;display:inline;font-family:sans-serif" id="text5235" x="168.449" y="227.225"><tspan id="tspan5237" x="168.449" y="227.225">L</tspan></text><text xml:space="preserve" style="font-size:40px;font-style:normal;font-weight:400;line-height:125%;letter-spacing:0;word-spacing:0;fill:#000;fill-opacity:1;stroke:none;display:inline;font-family:sans-serif" id="text5239" x="245.055" y="156.055"><tspan id="tspan5241" x="245.055" y="156.055">S</tspan></text><text xml:space="preserve" style="font-size:40px;font-style:normal;font-weight:400;line-height:125%;letter-spacing:0;word-spacing:0;fill:#000;fill-opacity:1;stroke:none;display:inline;font-family:sans-serif" id="text5247" x="69.026" y="663.152"><tspan id="tspan5249" x="69.026" y="663.152">x<tspan style="font-size:65.00091553%;baseline-shift:sub" id="tspan8195">J</tspan></tspan></text><text xml:space="preserve" style="font-size:40px;font-style:normal;font-weight:400;line-height:125%;letter-spacing:0;word-spacing:0;fill:#000;fill-opacity:1;stroke:none;display:inline;font-family:sans-serif" id="text5251" x="558.626" y="181.834"><tspan id="tspan5253" x="558.626" y="181.834">N</tspan></text><text xml:space="preserve" style="font-size:40px;font-style:normal;font-weight:400;line-height:125%;letter-spacing:0;word-spacing:0;fill:#000;fill-opacity:1;stroke:none;display:inline;font-family:sans-serif" id="text5281" x="386.003" y="141.953"><tspan id="tspan5283" x="386.003" y="141.953">J</tspan></text><path style="fill:none;stroke:#000;stroke-width:1.4470619px;stroke-linecap:butt;stroke-linejoin:miter;stroke-opacity:1;display:inline" id="path5315" d="m 285.40055,524.34547 c 0,18.78388 44.59117,18.78388 44.59117,18.78388 l 0,0"/><path style="fill:none;stroke:#000;stroke-width:1.4007411px;stroke-linecap:butt;stroke-linejoin:miter;stroke-opacity:1;display:inline" id="path5323" d="m 362.07636,400.41517 c 5.77635,-3.18492 12.59472,-4.44174 19.127,-3.52566 6.53228,0.91608 12.74192,3.99995 17.41937,8.6509 5.46641,5.43545 8.77067,12.98873 9.0521,20.69241 l 0,0"/><path style="fill:none;stroke:#000;stroke-width:1px;stroke-linecap:butt;stroke-linejoin:miter;stroke-opacity:1;display:inline" id="path5327" d="m 314.98139,384.2185 c 3.80506,-8.87848 11.12152,-16.19494 20,-20 9.44748,-4.04892 20.55252,-4.04892 30,0 l 0,0"/><text xml:space="preserve" style="font-size:40px;font-style:normal;font-weight:400;line-height:89.99999762%;letter-spacing:0;word-spacing:0;fill:#000;fill-opacity:1;stroke:none;display:inline;font-family:sans-serif" id="text5339" x="274.981" y="574.219"><tspan id="tspan5341" x="274.981" y="574.219">φ</tspan></text><text xml:space="preserve" style="font-size:40px;font-style:normal;font-weight:400;line-height:125%;letter-spacing:0;word-spacing:0;fill:#000;fill-opacity:1;stroke:none;display:inline;font-family:sans-serif" id="text5375" x="314.981" y="334.219"><tspan id="tspan5377" x="314.981" y="334.219">θ<tspan style="font-size:65.00091553%;baseline-shift:sub" id="tspan5379">JL</tspan></tspan></text><text xml:space="preserve" style="font-size:40px;font-style:normal;font-weight:400;line-height:125%;letter-spacing:0;word-spacing:0;fill:#000;fill-opacity:1;stroke:none;display:inline;font-family:sans-serif" id="text7715" x="300.699" y="586.635"><tspan id="tspan7717" x="300.699" y="586.635" style="font-size:65.00091553%;baseline-shift:sub">JL</tspan></text><text xml:space="preserve" style="font-size:40px;font-style:normal;font-weight:400;line-height:125%;letter-spacing:0;word-spacing:0;fill:#000;fill-opacity:1;stroke:none;display:inline;font-family:sans-serif" id="text8197" x="381.098" y="379.184"><tspan id="tspan8199" x="381.098" y="379.184">θ<tspan style="font-size:65.00091553%;baseline-shift:sub" id="tspan8201">JN</tspan></tspan></text><path style="opacity:.01000001;fill:#000;fill-opacity:1;stroke:#000;stroke-width:.30000001;stroke-miterlimit:4;stroke-opacity:1;stroke-dasharray:1.20000003,1.20000003;stroke-dashoffset:.65999998;display:inline" id="path3054" d="m 604.43057,176.69636 -2.97776,307.70235"/><path style="opacity:.01000001;fill:#000;fill-opacity:1;stroke:#000;stroke-width:.32433802;stroke-miterlimit:4;stroke-opacity:1;stroke-dasharray:1.29735204,1.29735204;stroke-dashoffset:1.13518303;display:inline" id="path3876" d="m 603.75015,177.70112 3.48079,305.69283 6.96158,-24.81272"/><path style="opacity:.01000001;fill:#000;fill-opacity:1;stroke:#000;stroke-width:.30000001;stroke-miterlimit:4;stroke-opacity:1;stroke-dasharray:1.20000005,1.20000005;stroke-dashoffset:1.05000004" id="path4169" d="M 607.26552,480.51509 604.40837,183.37223"/><path style="opacity:.01000001;fill:#000;fill-opacity:1;stroke:#000;stroke-width:.30000001;stroke-miterlimit:4;stroke-opacity:1;stroke-dasharray:1.20000005,1.20000005;stroke-dashoffset:1.05000004" id="path4190" d="M 514.40837,567.65795 592.9798,553.37223"/><path style="opacity:.01000001;fill:#000;fill-opacity:1;stroke:#000;stroke-width:.30000001;stroke-miterlimit:4;stroke-opacity:1;stroke-dasharray:1.20000005,1.20000005;stroke-dashoffset:1.05000004" id="path4192" d="m 512.9798,504.08652 39.28572,47.85714 0,0"/><path style="opacity:.01000001;fill:#000;fill-opacity:1;stroke:#000;stroke-width:.30000001;stroke-miterlimit:4;stroke-opacity:1;stroke-dasharray:1.20000005,1.20000005;stroke-dashoffset:1.05000004" id="path4194" d="m 517.9798,524.8008 40,62.14286 0,0 0,0 0,0"/><path style="opacity:.01000001;fill:#000;fill-opacity:1;stroke:#000;stroke-width:.30000001;stroke-miterlimit:4;stroke-opacity:1;stroke-dasharray:1.2,1.2;stroke-dashoffset:1.04999996" id="path4196" d="m 471.55123,541.94366 -2.14286,50 0,0"/><path style="opacity:.01000001;fill:#000;fill-opacity:1;stroke:#000;stroke-width:.30000001;stroke-miterlimit:4;stroke-opacity:1;stroke-dasharray:1.2,1.2;stroke-dashoffset:1.04999996" id="path4742" d="m 467.9798,556.94366 -2.14286,60.71429 0,0"/><path style="opacity:.01000001;fill:#000;fill-opacity:1;stroke:#000;stroke-width:.30000001;stroke-miterlimit:4;stroke-opacity:1;stroke-dasharray:1.2,1.2;stroke-dashoffset:1.04999996" id="path4759" d="M 660.82296,174.36736 651.51559,479.9592"/><path style="opacity:.01000001;fill:#000;fill-opacity:1;stroke:#000;stroke-width:.30000001;stroke-miterlimit:4;stroke-opacity:1;stroke-dasharray:1.2,1.2;stroke-dashoffset:1.04999992" id="path4761" d="m 603.42754,182.1235 0,300.93816 z"/><path style="opacity:1;fill:#000;fill-opacity:1;stroke:#000;stroke-width:.29999999999999999;stroke-miterlimit:4;stroke-opacity:1;stroke-dasharray:1.80000000000000004,1.80000000000000004;stroke-dashoffset:1.04999979999999993" id="path3047" d="m 601.87631,182.1235 0,300.93816"/><path style="fill:none;stroke:#000;stroke-width:1;stroke-linecap:butt;stroke-linejoin:miter;stroke-opacity:1;stroke-miterlimit:4;stroke-dasharray:4,4;stroke-dashoffset:0" id="path12090" d="m 601.09219,180.33976 0,304.93363"/><path id="path12092" style="fill:#000;stroke:none" d="m 722.15247,481.98273 a 1.5,1.5 0 1 1 -3,0 1.5,1.5 0 1 1 3,0 z"/><path id="path12094" style="fill:#000;stroke:none" d="m 722.15247,481.98273 a 1.5,1.5 0 1 1 -3,0 1.5,1.5 0 1 1 3,0 z"/><path id="path12096" style="fill:#500;stroke:#000;fill-opacity:1;stroke-opacity:1;stroke-width:1;stroke-miterlimit:4;stroke-dasharray:4,4;stroke-dashoffset:0" d="m 722.15247,481.98273 a 1.5,1.5 0 1 1 -3,0 1.5,1.5 0 1 1 3,0 z"/></g></svg>